<svg id="Capa_1" data-name="Capa 1" xmlns="http://www.w3.org/2000/svg" viewBox="0 0 200 200"><title>javer</title><path d="M167.21,7.69l3,.68a28.45,28.45,0,0,1,22.39,26.91c0,.78,0,1.57,0,2.35q0,62.6,0,125.2c0,8-2.29,15-7.82,20.9a27.39,27.39,0,0,1-19.33,8.92c-5.53.23-11.08.08-16.62.09H86.72c-4,0-5.33-1.26-5.35-5.25q0-4.43,0-8.85c0-4,1.32-5.26,5.35-5.26q38,0,76.06,0c3.36,0,6.3-.78,8.48-3.52a10.61,10.61,0,0,0,2.06-6.94q0-44.71,0-89.43,0-18,0-36c0-6.81-3.67-10.49-10.49-10.5H87.31a17.21,17.21,0,0,1-2.52-.14c-1.92-.29-3.2-1.38-3.26-3.27-.13-4.21-.09-8.42,0-12.63,0-1.82,1.46-2.64,2.91-3.32Z"/><path d="M77.81,123.74H13.37c-4.08,0-5.28-1.19-5.28-5.26q0-18.25,0-36.5c0-4.08,1.21-5.28,5.26-5.28H77.7c0-.72.1-1.35.1-2,0-5.84,0-11.68,0-17.53,0-4.42,2.87-6.06,6.7-3.85Q121.8,74.85,159.07,96.4c3.71,2.15,3.72,5.5,0,7.64q-37.27,21.54-74.56,43.06c-3.83,2.21-6.69.58-6.71-3.84,0-5.78,0-11.56,0-17.35C77.81,125.26,77.81,124.61,77.81,123.74Z"/></svg>